# xmcd CD database file
#
# Track frame offsets:
#	150
#	23610
#	42292
#	62410
#	84252
#	105647
#	112207
#	132435
#	161550
#	185520
#	209550
#	238885
#	259240
#
# Disc length: 3715 seconds
#
# Revision: 0
# Processed by: cddbd v1.4PL0 Copyright (c) Steve Scherf et al.
# Submitted via: CDex 1.50
#
DISCID=b50e810d
DTITLE=Jens Jefsen - Dave Samuels - Thomas Clausen - Uffe Steen - Alex Riel - Handshakin'
DYEAR=1994
DGENRE=Jazz
TTITLE0=Calm
TTITLE1=Blue Wes
TTITLE2=Disposed for a walk
TTITLE3=Handshakn'
TTITLE4=Four steps
TTITLE5=Bass interlude
TTITLE6=In due time
TTITLE7=For good and all
TTITLE8=Hiawatha
TTITLE9=Do not disturb!
TTITLE10=Addiction
TTITLE11=Tommeliden
TTITLE12=Give a speech
EXTD=YEAR: 1994
EXTT0=
EXTT1=
EXTT2=
EXTT3=
EXTT4=
EXTT5=
EXTT6=
EXTT7=
EXTT8=
EXTT9=
EXTT10=
EXTT11=
EXTT12=
PLAYORDER=
